<?xml version="1.0" standalone="no"?>
<!DOCTYPE svg PUBLIC "-//W3C//DTD SVG 20010904//EN"
 "http://www.w3.org/TR/2001/REC-SVG-20010904/DTD/svg10.dtd">
<svg version="1.0" xmlns="http://www.w3.org/2000/svg"
 width="500.000000pt" height="500.000000pt" viewBox="0 0 500.000000 500.000000"
 preserveAspectRatio="xMidYMid meet">
<metadata>
Created by potrace 1.16, written by Peter Selinger 2001-2019
</metadata>
<g transform="translate(0.000000,500.000000) scale(0.100000,-0.100000)"
fill="#000000" stroke="none">
<path d="M0 2500 l0 -2500 2500 0 2500 0 0 2500 0 2500 -2500 0 -2500 0 0
-2500z m3676 2054 c4 -14 5 -213 2 -443 -4 -400 -6 -418 -26 -465 -12 -27 -22
-56 -22 -66 0 -9 -3 -20 -7 -24 -5 -4 -9 -22 -10 -39 -1 -18 -7 -72 -13 -122
-7 -51 -10 -147 -7 -220 l4 -130 -50 -47 c-49 -46 -107 -75 -126 -64 -13 8
-32 91 -42 186 -4 47 -9 194 -9 327 -1 223 -3 244 -19 253 -10 5 -21 7 -24 4
-6 -6 -72 39 -98 68 -9 10 -20 18 -25 18 -10 0 -165 162 -189 198 -8 10 -27
33 -44 51 -16 17 -33 41 -36 52 -4 10 -10 19 -15 19 -5 0 -27 18 -51 40 -40
37 -42 42 -43 97 l-1 58 65 11 c87 16 237 17 246 3 4 -7 21 -9 44 -5 62 10 91
-14 55 -44 -8 -7 -15 -15 -15 -19 0 -4 22 -30 48 -58 26 -28 46 -56 44 -62 -2
-6 1 -11 7 -11 6 0 11 10 11 23 2 114 14 273 21 275 5 2 9 30 9 62 0 34 5 62
13 68 12 10 158 27 254 31 38 1 43 -2 49 -25z m-1020 -461 c7 -33 31 -106 49
-148 7 -16 20 -56 30 -87 11 -37 22 -55 29 -51 6 4 5 -1 -3 -10 -7 -9 -9 -17
-4 -17 5 0 9 -9 10 -20 1 -11 16 -48 32 -84 17 -35 31 -69 31 -75 0 -7 7 -14
15 -17 8 -4 12 -10 9 -15 -3 -5 -1 -9 3 -9 5 0 10 -10 11 -22 5 -55 32 -140
48 -153 6 -6 14 -22 16 -35 1 -14 8 -28 13 -32 6 -4 10 -11 10 -15 1 -4 6 -24
13 -43 6 -19 18 -57 26 -85 8 -27 25 -75 38 -105 l23 -56 40 23 c49 28 135 32
135 8 0 -9 11 -27 25 -41 14 -14 25 -29 25 -33 0 -16 -74 -84 -108 -98 -60
-25 -284 -83 -321 -83 -111 0 -175 118 -252 465 -7 33 -21 72 -32 86 -13 19
-19 43 -18 87 0 34 -4 64 -10 67 -5 4 -7 11 -4 16 4 5 1 9 -4 9 -6 0 -11 15
-11 34 0 30 -27 102 -54 145 -5 8 -11 28 -13 45 -2 17 -6 40 -8 51 -2 11 -4
25 -4 32 -1 6 -8 19 -17 28 -9 8 -14 22 -11 29 3 8 3 17 -1 20 -15 15 -9 36
10 36 21 0 21 7 2 69 -5 17 -4 22 4 17 8 -4 12 0 12 12 0 29 30 50 95 65 95
23 114 22 121 -10z m-616 -181 c133 -47 233 -122 266 -199 8 -17 18 -34 24
-38 5 -3 15 -26 21 -51 6 -24 15 -44 20 -44 5 0 9 -8 9 -19 0 -10 9 -40 21
-66 27 -62 70 -249 85 -375 1 -14 7 -51 12 -83 5 -32 6 -60 2 -62 -4 -3 -6
-17 -4 -33 4 -34 -17 -96 -42 -125 -10 -12 -18 -24 -17 -27 3 -20 -28 -61 -98
-131 -131 -128 -209 -173 -322 -185 -114 -12 -272 38 -366 115 -45 36 -124
147 -166 229 -13 26 -32 56 -42 67 -10 12 -19 27 -21 35 -2 8 -7 17 -10 20
-16 12 -76 160 -66 160 4 0 1 7 -6 15 -7 8 -10 15 -7 15 4 0 -1 19 -9 43 -12
31 -16 76 -15 172 2 132 12 185 44 219 9 11 17 30 17 43 0 13 2 23 4 23 2 0
11 3 19 6 10 4 16 -4 19 -25 2 -17 0 -32 -5 -34 -6 -2 0 -25 12 -53 21 -45 26
-50 50 -46 16 2 34 -2 42 -11 16 -16 54 -37 66 -37 5 0 14 25 22 57 7 31 19
63 27 71 11 10 12 18 4 27 -9 11 -6 21 10 43 14 19 21 44 22 80 1 28 5 49 10
46 4 -3 8 4 8 16 0 12 4 19 9 16 5 -4 7 4 3 16 -3 13 -1 19 5 15 9 -6 69 31
82 51 3 5 26 17 51 29 107 48 117 48 210 15z m-960 -382 c0 -5 6 -10 13 -10
29 0 59 -108 38 -134 -8 -10 -7 -23 4 -50 8 -20 13 -36 10 -36 -3 0 2 -11 11
-25 13 -20 19 -23 31 -14 21 18 38 -5 69 -91 31 -89 27 -123 -20 -167 l-33
-32 13 -48 c7 -26 28 -87 48 -135 19 -49 33 -88 31 -88 -3 0 0 -12 6 -27 6
-16 17 -53 24 -83 7 -30 23 -91 35 -135 38 -140 24 -217 -48 -272 -35 -27 -53
-33 -92 -33 -46 0 -49 2 -78 48 -17 26 -46 76 -66 112 -34 63 -47 70 -26 15 7
-17 7 -24 0 -20 -6 3 -10 12 -10 20 0 7 -7 21 -16 29 -8 9 -12 16 -8 16 3 0 1
6 -5 14 -6 7 -18 36 -25 62 -36 128 -113 314 -131 314 -6 0 -26 -10 -45 -23
-19 -13 -55 -34 -80 -46 -25 -12 -55 -30 -67 -40 l-22 -18 26 -64 c25 -65 61
-139 113 -239 16 -30 34 -73 40 -95 6 -22 15 -49 20 -60 20 -41 16 -68 -10
-81 -28 -13 -114 -43 -147 -51 -29 -7 -73 4 -73 18 0 6 -16 33 -36 60 -20 27
-56 90 -80 141 -25 50 -53 103 -64 118 -10 14 -26 46 -36 71 -23 60 -31 66
-94 74 -63 8 -90 20 -90 39 0 15 35 62 68 91 l23 20 -20 40 c-32 68 -90 257
-96 315 -3 30 -10 82 -17 116 -15 83 -8 105 43 127 48 21 111 18 171 -7 38
-16 109 -108 113 -148 2 -13 11 -52 20 -88 9 -36 19 -76 21 -90 13 -78 5 -76
102 -25 48 25 124 69 169 98 64 41 80 56 72 67 -14 23 -30 86 -36 146 -3 30
-6 63 -8 72 -1 9 1 22 5 27 4 6 10 29 13 53 3 24 14 53 24 64 17 19 86 60 109
64 6 1 24 9 40 17 34 19 54 21 54 7z m3630 -575 c171 -89 175 -96 110 -177
-22 -28 -40 -57 -40 -64 0 -8 -5 -14 -11 -14 -5 0 -7 -4 -4 -10 3 -5 -1 -10
-11 -10 -12 0 -15 -6 -11 -21 3 -12 0 -22 -9 -26 -8 -3 -11 -9 -8 -14 3 -5 -3
-12 -13 -16 -23 -9 -43 -28 -43 -42 0 -6 -15 -20 -32 -31 -18 -11 -29 -20 -25
-20 5 0 2 -6 -5 -14 -7 -7 -42 -52 -78 -100 -36 -47 -69 -86 -74 -86 -6 0 -43
-34 -83 -75 -40 -41 -79 -75 -86 -75 -8 0 -20 -7 -27 -15 -7 -8 -25 -15 -41
-15 -40 0 -79 -41 -73 -76 3 -16 0 -31 -8 -35 -9 -6 -9 -9 -1 -9 6 0 12 -8 11
-17 0 -10 2 -27 5 -38 12 -53 20 -101 18 -109 -1 -4 5 -31 13 -60 33 -120 28
-164 -23 -210 -20 -18 -20 -18 -27 10 -4 16 -24 81 -46 144 -22 63 -48 153
-60 200 -11 47 -26 96 -33 110 -26 51 -58 157 -71 230 -12 69 -54 129 -86 122
-10 -2 -18 2 -18 8 0 6 -4 9 -9 6 -13 -9 -78 47 -73 63 5 16 -46 60 -70 61
-13 0 -18 8 -18 28 0 22 18 45 93 114 197 183 265 226 448 282 116 36 184 45
324 42 118 -2 121 -3 195 -41z m-1466 -246 c50 -6 110 -18 133 -26 51 -19 126
-96 198 -203 28 -41 52 -77 55 -80 14 -12 80 -162 75 -170 -3 -4 2 -11 11 -14
8 -3 13 -10 10 -15 -4 -5 1 -16 9 -24 8 -9 15 -20 15 -25 0 -5 7 -22 15 -38
12 -25 13 -30 0 -37 -11 -6 -2 -31 47 -129 34 -67 64 -116 66 -109 2 7 -1 17
-8 21 -7 4 -8 10 -3 13 14 9 46 -51 38 -71 -3 -9 -3 -13 1 -10 10 10 47 -40
39 -52 -4 -6 -1 -9 7 -8 7 2 13 -4 13 -12 0 -8 3 -17 6 -20 14 -12 49 -91 49
-112 0 -13 -11 -40 -25 -61 -22 -32 -31 -37 -64 -37 -21 0 -52 7 -69 16 -34
17 -43 28 -14 17 9 -4 -8 22 -39 58 -55 63 -130 163 -170 226 l-21 32 -81 -6
c-136 -10 -129 3 -90 -165 19 -78 43 -173 55 -210 31 -98 25 -108 -77 -142
-47 -16 -88 -26 -91 -23 -3 3 -25 -1 -47 -9 -55 -20 -82 -12 -97 28 -7 18 -22
53 -32 77 -11 24 -17 53 -14 66 3 12 3 25 -1 29 -8 8 -8 6 -27 126 -9 52 -20
111 -24 130 -5 20 -8 43 -6 53 1 9 -1 17 -5 17 -4 0 -8 24 -8 53 -1 28 -6 84
-13 122 -6 39 -15 104 -19 145 -5 41 -12 87 -16 103 -4 15 -3 27 2 27 5 0 9
18 10 40 1 23 -2 38 -8 35 -5 -4 -9 10 -8 32 0 33 1 35 9 16 5 -13 14 -23 20
-23 15 0 12 66 -4 83 -11 10 -12 25 -5 63 16 88 73 214 97 214 9 0 56 -5 106
-11z m-842 -300 c133 -20 147 -27 223 -104 39 -39 88 -101 109 -136 22 -35 42
-66 45 -69 8 -7 72 -135 76 -152 2 -7 6 -24 11 -38 4 -14 6 -27 5 -29 -2 -2 3
-7 9 -11 7 -4 20 -26 31 -49 15 -34 16 -41 4 -41 -17 0 -20 -21 -6 -35 15 -16
94 -178 94 -192 0 -7 4 -13 9 -13 5 0 7 -4 3 -9 -3 -5 -1 -12 3 -15 11 -6 9
20 -2 49 -26 68 -42 103 -57 126 -19 27 -35 79 -25 79 3 0 24 -39 47 -87 22
-49 51 -110 64 -138 13 -27 26 -60 30 -73 4 -13 11 -19 17 -16 7 5 9 1 5 -9
-4 -10 -2 -16 6 -14 7 1 11 -6 11 -15 -1 -10 2 -15 7 -12 5 3 9 -1 9 -9 0 -7
9 -32 20 -55 24 -49 24 -55 5 -92 -11 -21 -21 -28 -39 -26 -17 2 -23 -1 -19
-11 4 -10 9 -11 19 -2 9 7 14 8 14 1 0 -25 -71 -29 -110 -7 -14 8 -21 14 -15
15 5 0 -7 17 -26 38 -47 50 -110 128 -143 177 -76 115 -76 115 -99 110 -12 -2
-46 -7 -75 -10 -29 -3 -64 -8 -77 -11 -28 -7 -28 -1 6 -129 10 -38 21 -83 23
-100 3 -16 15 -64 26 -105 11 -41 23 -85 27 -98 7 -29 -10 -49 -50 -58 -18 -3
-44 -13 -60 -21 -15 -7 -51 -16 -79 -19 -29 -3 -57 -9 -64 -15 -18 -15 -62 0
-70 23 -5 17 -8 16 -22 -13 -23 -45 -67 -57 -99 -27 -13 12 -23 29 -23 39 0 9
-7 22 -15 29 -8 6 -17 21 -21 33 -3 11 -23 38 -43 60 -20 22 -35 43 -34 47 1
3 -3 7 -10 7 -7 0 -34 15 -61 33 -26 18 -55 34 -65 35 -9 1 -26 6 -39 10 -20
7 -21 9 -7 19 13 9 9 11 -22 11 -38 -1 -114 -22 -123 -35 -3 -3 -28 -21 -57
-40 -29 -18 -64 -49 -78 -69 -25 -38 -32 -57 -16 -47 9 6 26 -22 22 -37 0 -4
8 -26 19 -49 11 -22 17 -44 15 -49 -3 -4 -1 -10 3 -13 13 -8 5 -205 -10 -250
-11 -35 -19 -42 -66 -58 -29 -10 -64 -19 -77 -20 -14 -1 -25 -6 -25 -10 0 -17
-21 -6 -55 29 -20 20 -33 43 -31 50 3 7 0 13 -7 13 -12 0 -77 90 -77 107 0 5
-9 25 -19 45 -11 19 -18 38 -15 41 2 2 -1 17 -8 33 -6 16 -13 36 -15 44 -11
62 -21 98 -31 117 -7 12 -17 44 -22 70 -5 27 -12 57 -16 67 -6 15 -4 17 6 11
10 -6 12 -4 5 11 -4 10 -8 26 -9 34 -1 9 -5 20 -9 26 -3 6 -6 36 -6 66 1 30
-5 82 -12 114 -16 76 -16 205 0 271 16 64 74 157 139 222 54 54 129 81 223 81
58 0 236 -47 307 -82 49 -23 102 -96 102 -141 0 -33 -23 -91 -45 -113 -8 -9
-13 -20 -10 -25 4 -5 -1 -9 -9 -9 -9 0 -16 -8 -15 -17 0 -11 3 -13 6 -5 2 6 8
12 13 12 8 0 -6 -82 -20 -115 -13 -33 -40 -105 -40 -110 0 -3 15 -5 33 -5 93
0 273 -67 360 -133 l47 -37 0 46 c0 25 -4 53 -10 63 -5 10 -10 38 -11 62 -1
24 -6 49 -10 54 -5 6 -7 24 -5 39 2 16 -1 49 -6 75 -4 25 -10 60 -13 76 -2 17
-6 44 -9 60 -3 17 -8 53 -10 80 -3 28 -8 67 -12 88 -4 20 -3 37 2 37 5 0 9 19
9 43 0 23 -5 41 -10 40 -6 -1 -9 15 -6 40 4 40 5 40 10 12 4 -16 11 -29 16
-28 17 4 17 51 0 77 -12 18 -15 35 -10 58 7 36 42 134 56 158 5 8 13 25 19 38
11 26 33 27 142 11z m-1487 -681 c17 -10 37 -20 46 -24 18 -6 39 -45 39 -72 0
-16 -68 -52 -98 -52 -7 0 -11 -4 -8 -9 9 -14 -25 -23 -39 -11 -9 8 -14 6 -18
-4 -9 -22 -55 -10 -95 25 -21 19 -42 29 -53 26 -11 -3 -19 -1 -19 4 0 5 7 9
15 9 8 0 15 5 15 10 0 23 -40 8 -55 -20 -19 -36 -20 -50 -2 -26 12 16 14 16
14 3 0 -9 -5 -18 -12 -20 -6 -3 -23 -23 -39 -45 -25 -37 -36 -81 -40 -159 -1
-13 -4 -23 -8 -23 -4 0 -4 -7 -1 -17 4 -9 2 -14 -3 -11 -5 4 -10 -6 -10 -20
-1 -24 -11 -87 -14 -87 0 0 -2 -29 -4 -64 -3 -39 -9 -67 -18 -72 -11 -7 -11
-9 0 -9 10 0 12 -8 8 -27 -9 -39 -14 -162 -8 -168 6 -5 12 -41 15 -90 2 -16 7
-39 13 -50 6 -11 9 -26 7 -32 -3 -7 0 -13 6 -13 6 0 8 -6 5 -13 -3 -8 14 -34
36 -58 23 -24 47 -51 55 -59 8 -9 45 -21 84 -28 61 -10 75 -9 124 7 30 11 72
30 93 43 22 13 53 31 69 39 17 9 29 21 28 27 -2 7 2 12 8 12 5 0 7 5 3 12 -5
7 -3 8 5 3 7 -4 22 1 34 13 27 25 63 40 116 46 69 8 74 -38 8 -88 -107 -82
-405 -236 -497 -257 -86 -20 -187 -17 -240 8 -88 42 -146 121 -166 227 -2 12
-8 42 -12 68 -10 51 2 58 13 8 9 -40 22 -38 18 3 -2 17 -4 121 -5 229 0 109
-4 195 -8 193 -9 -6 -22 -159 -21 -270 0 -72 -2 -84 -10 -60 -24 77 7 500 41
540 6 7 8 20 4 29 -3 9 -2 16 3 16 11 0 14 18 13 70 0 22 3 30 8 22 6 -9 12
-5 21 14 10 23 9 26 -4 21 -10 -4 -6 7 11 33 15 22 29 40 33 40 3 0 17 18 31
40 23 38 87 90 110 90 5 0 10 4 10 9 0 19 116 39 215 37 75 -1 108 -5 130 -18z"/>
<path d="M1970 3699 c0 -5 -7 -9 -15 -9 -36 0 -166 -151 -157 -182 1 -5 -2 -8
-7 -8 -9 0 -22 -32 -49 -120 -6 -19 -14 -69 -17 -111 -3 -42 -7 -84 -9 -95
-13 -69 -16 -166 -6 -214 7 -30 13 -65 15 -77 4 -27 43 -93 56 -93 4 0 6 -6 3
-13 -2 -7 7 -23 21 -35 14 -12 25 -26 25 -32 0 -5 5 -10 12 -10 6 0 26 -11 45
-26 50 -38 97 -55 135 -47 61 12 161 71 188 111 14 20 30 41 37 45 7 4 13 16
13 25 0 10 5 23 11 29 14 14 12 353 -2 353 -3 0 -6 6 -7 13 -2 22 -8 42 -20
63 -6 12 -8 24 -5 28 3 3 1 6 -5 6 -7 0 -12 5 -12 11 0 7 -13 33 -28 58 -15
25 -34 62 -42 81 -30 79 -42 108 -73 170 -18 36 -39 69 -47 75 -20 13 -60 16
-60 4z"/>
<path d="M4567 2819 c-9 -5 -21 -8 -26 -4 -5 3 -13 0 -16 -6 -4 -5 -13 -8 -21
-5 -8 3 -17 -1 -20 -8 -3 -8 -13 -13 -22 -11 -9 1 -20 -3 -24 -9 -5 -8 -8 -7
-8 2 0 6 -5 12 -12 12 -6 0 -8 -3 -5 -7 14 -13 -116 -83 -154 -83 -10 0 -19
-4 -19 -10 0 -5 -9 -10 -20 -10 -11 0 -20 -5 -20 -11 0 -5 -5 -7 -11 -3 -6 3
-24 -6 -40 -22 -24 -23 -28 -34 -27 -73 1 -25 7 -49 12 -53 7 -5 2 -8 -9 -8
-16 0 -17 -2 -6 -9 17 -11 24 -41 9 -41 -5 0 -3 -7 6 -15 15 -16 18 -109 3
-132 -9 -14 2 -65 13 -61 21 8 252 235 335 328 84 96 175 221 175 242 0 11
-71 10 -93 -3z"/>
<path d="M3370 2253 c0 -32 39 -306 45 -311 1 -2 21 1 43 7 21 6 53 8 71 5 34
-7 38 1 16 32 -8 12 -11 24 -8 28 3 3 2 6 -4 6 -6 0 -25 28 -43 63 -43 80
-111 197 -116 197 -2 0 -4 -12 -4 -27z"/>
<path d="M2517 1953 c11 -94 43 -306 46 -309 2 -2 18 1 36 7 18 6 50 9 72 5
43 -7 47 -2 23 32 -8 12 -12 22 -7 22 4 0 3 4 -4 8 -6 4 -42 63 -81 132 -38
68 -74 126 -79 127 -5 2 -8 -9 -6 -24z"/>
<path d="M1579 1917 c-34 -28 -73 -103 -58 -112 6 -4 13 2 16 14 3 12 13 21
22 20 10 0 11 -2 4 -6 -7 -2 -13 -13 -13 -23 0 -18 -32 -44 -42 -35 -3 3 -11
-13 -18 -35 -9 -28 -16 -37 -22 -28 -6 10 -8 10 -8 -2 0 -8 5 -22 10 -30 9
-13 11 -13 20 0 5 8 10 25 10 36 0 25 24 48 42 41 8 -3 6 -6 -5 -6 -11 -1 -18
-8 -16 -18 1 -10 0 -20 -1 -23 -3 -10 -11 -45 -12 -57 -1 -7 -5 -13 -9 -13 -4
0 -4 -13 1 -29 4 -16 5 -32 2 -36 -3 -3 -6 -22 -7 -43 -1 -21 -4 -43 -9 -50
-9 -15 3 -100 15 -108 12 -7 83 150 131 292 45 132 46 178 8 242 -23 38 -27
38 -61 9z"/>
</g>
</svg>
